<svg xmlns="http://www.w3.org/2000/svg" viewBox="0 0 24 24" role="img" aria-label="TikTok logo">
  <rect width="24" height="24" fill="#000000" rx="4"/>
  <path fill="#25F4EE" d="M15.5 6.1c.7.74 1.59 1.27 2.61 1.42v2.54c-.96.04-1.88-.22-2.61-.69v5.35c0 2.36-1.65 4.29-3.96 4.68-2.7.45-5.06-1.61-5.06-4.21 0-2.35 1.89-4.25 4.25-4.25.32 0 .63.04.93.11v2.53a1.77 1.77 0 0 0-.93-.26 1.73 1.73 0 1 0 0 3.45c.96 0 1.74-.78 1.74-1.74V4.5h2.03v1.6Z"/>
  <path fill="#FE2C55" d="M14.57 5.24c.67.82 1.52 1.39 2.57 1.53v1.5c-1.21-.06-2.07-.5-2.57-.9v5.28c0 2.36-1.65 4.29-3.96 4.68-1.59.26-3.08-.39-3.99-1.53a4.2 4.2 0 0 0 5.21 2.04c2.31-.68 3.27-2.76 3.27-4.68V5.24h1.9c-.9-.33-1.54-.87-1.9-1.34v1.34Z" opacity=".7"/>
</svg>
