<svg xmlns="http://www.w3.org/2000/svg" viewBox="0 0 24 24" role="img" aria-label="YouTube logo">
  <path fill="#FF0000" d="M23.5 7.2s-.23-1.64-.94-2.36c-.9-.94-1.92-.95-2.39-1C16.58 3.5 12 3.5 12 3.5h-.01s-4.58 0-8.17.34c-.47.05-1.49.06-2.39 1-.7.72-.94 2.36-.94 2.36S0 9.12 0 11.03v1.94c0 1.92.23 3.83.23 3.83s.23 1.64.94 2.36c.9.94 2.08.91 2.61 1.02 1.9.18 8.22.33 8.22.33s4.58 0 8.17-.34c.47-.05 1.49-.06 2.39-1 .7-.72.94-2.36.94-2.36s.23-1.91.23-3.83v-1.94c0-1.91-.23-3.83-.23-3.83Z"/>
  <path fill="#FFFFFF" d="m9.75 8.6 6.27 3.4-6.27 3.4V8.6Z"/>
</svg>
